<svg width="33" height="33" viewBox="0 0 33 33" fill="none" xmlns="http://www.w3.org/2000/svg">
<path d="M16.6945 9.06111C16.3728 9.23469 16.1722 9.56475 16.1722 9.92374V15.5137H5.13465C4.57733 15.5137 4.125 15.9556 4.125 16.5C4.125 17.0444 4.57733 17.4862 5.13465 17.4862H16.1722V23.0762C16.1722 23.4365 16.3728 23.7666 16.6945 23.9388C17.0163 24.1137 17.4094 24.1019 17.7203 23.9112L28.4038 17.335C28.6973 17.1535 28.875 16.8392 28.875 16.5C28.875 16.1607 28.6973 15.8464 28.4038 15.665L17.7203 9.08872C17.5561 8.98878 17.369 8.9375 17.1819 8.9375C17.0149 8.9375 16.8466 8.97958 16.6945 9.06111Z" fill="white"/>
</svg>
