<svg width="282" height="220" viewBox="0 0 282 220" fill="none" xmlns="http://www.w3.org/2000/svg">
<path d="M208.928 125.138L152.926 55.1557C150.383 57.4812 147.25 59.0632 143.869 59.7289C133.326 61.8053 123.029 54.6056 120.871 43.6479C119.346 35.9021 122.299 28.3561 127.883 23.862L108.788 0L0 92.9761L100.14 218.114L208.928 125.138Z" fill="#F2F2F2"/>
<path d="M90.637 68.4747L43.9762 78.0098C42.6577 78.2792 41.4162 78.8401 40.3426 79.6514C39.269 80.4628 38.3904 81.504 37.7713 82.6988C37.1522 83.8936 36.8082 85.2118 36.7644 86.5568C36.7207 87.9018 36.9783 89.2395 37.5185 90.472L90.7126 211.845C91.8795 214.507 93.9842 216.648 96.6264 217.86C99.2686 219.072 102.264 219.271 105.043 218.419L158.807 201.867C160.233 201.428 161.544 200.68 162.647 199.675C163.75 198.67 164.618 197.434 165.187 196.055C165.757 194.676 166.015 193.188 165.942 191.697C165.87 190.207 165.469 188.751 164.768 187.434L104.792 74.6593C103.357 72.2954 101.228 70.4324 98.6938 69.3253C96.1601 68.2182 93.3461 67.9211 90.637 68.4747Z" fill="#3F3D56"/>
<path d="M43.9167 79.1928L51.5888 77.6799C52.105 78.752 52.9581 79.6254 54.0177 80.1666C55.0773 80.7078 56.285 80.887 57.4561 80.6768L85.1806 75.7006C85.4552 75.6514 85.716 75.5436 85.9453 75.3846C86.1746 75.2256 86.3669 75.0191 86.5094 74.7792C86.6518 74.5393 86.7409 74.2715 86.7707 73.9941C86.8005 73.7167 86.7703 73.4361 86.682 73.1714L85.9278 70.9089L93.5639 69.4032C95.1454 69.0913 96.7852 69.2928 98.2442 69.9782C99.7033 70.6636 100.905 71.7972 101.675 73.2136L163.787 187.521C164.321 188.504 164.63 189.593 164.691 190.71C164.752 191.827 164.563 192.944 164.139 193.979C163.715 195.014 163.066 195.942 162.238 196.695C161.411 197.448 160.427 198.008 159.357 198.333L106.421 214.435C104.215 215.106 101.84 214.95 99.7406 213.996C97.6412 213.042 95.9612 211.356 95.0152 209.254L39.9541 86.8666C39.6134 86.1094 39.4481 85.2851 39.4705 84.4551C39.4929 83.6252 39.7024 82.811 40.0833 82.0733C40.4642 81.3355 41.0068 80.6934 41.6706 80.1946C42.3344 79.6958 43.1022 79.3534 43.9167 79.1928Z" fill="#FF0000"/>
<path d="M76.9284 74.1411L65.592 76.4665" stroke="black" stroke-width="1.67621" stroke-miterlimit="10"/>
<path d="M62.6852 77.92C63.3273 77.92 63.8479 77.4645 63.8479 76.9026C63.8479 76.3407 63.3273 75.8853 62.6852 75.8853C62.043 75.8853 61.5225 76.3407 61.5225 76.9026C61.5225 77.4645 62.043 77.92 62.6852 77.92Z" fill="black"/>
<path d="M70.2429 87.803L120.239 195.062L189.711 176.168V173.843L135.645 72.9785L71.4056 86.9309L71.1004 87.1606L70.2429 87.803Z" fill="white"/>
<path opacity="0.2" d="M70.2429 87.8025L120.239 195.062L189.711 176.168V173.843L120.53 193.318L71.1004 87.1602L70.2429 87.8025Z" fill="black"/>
<path d="M159.48 133.147L108.321 146.228" stroke="#3F3D56" stroke-width="1.67621" stroke-miterlimit="10"/>
<path d="M162.387 138.671L110.937 152.042" stroke="#3F3D56" stroke-width="1.67621" stroke-miterlimit="10"/>
<path d="M155.701 146.228L123.436 154.948" stroke="#3F3D56" stroke-width="1.67621" stroke-miterlimit="10"/>
<path d="M126.343 170.936L131.055 181.194L131.285 181.691L132.087 181.487L171.107 171.517V170.064L165.875 160.181L127.215 170.645L126.87 170.761L126.343 170.936Z" fill="#FF0000"/>
<path opacity="0.2" d="M126.343 170.936L131.055 181.193L131.285 181.691L132.087 181.487L171.107 171.517V170.063L131.866 180.528L126.87 170.761L126.343 170.936Z" fill="black"/>
<path d="M129.802 110.16C126.473 101.461 117.282 96.4759 109.903 98.8246C103.139 100.978 100.361 108.618 103.203 116.047C106.046 123.476 113.781 128.79 121.008 127.846C128.892 126.817 133.13 118.859 129.802 110.16Z" fill="#3F3D56" stroke="#3F3D56" stroke-width="1.67621" stroke-miterlimit="10"/>
<path opacity="0.2" d="M129.802 110.16C126.473 101.461 117.282 96.4759 109.903 98.8246C103.139 100.978 100.361 108.618 103.203 116.047C106.046 123.476 113.781 128.79 121.008 127.846C128.892 126.817 133.13 118.859 129.802 110.16Z" fill="black"/>
<path d="M131.255 108.707C127.927 100.008 118.735 95.0227 111.356 97.3715C104.593 99.5245 101.814 107.165 104.657 114.594C107.499 122.023 115.235 127.337 122.461 126.393C130.345 125.364 134.584 117.406 131.255 108.707Z" fill="#3F3D56" stroke="#3F3D56" stroke-width="1.67621" stroke-miterlimit="10"/>
<path d="M180.053 20.8331C182.422 20.8331 184.342 18.9128 184.342 16.544C184.342 14.1752 182.422 12.2549 180.053 12.2549C177.684 12.2549 175.764 14.1752 175.764 16.544C175.764 18.9128 177.684 20.8331 180.053 20.8331Z" stroke="#3F3D56" stroke-width="1.67621" stroke-miterlimit="10"/>
<path d="M236.735 145.533C239.103 145.533 241.024 143.613 241.024 141.244C241.024 138.875 239.103 136.955 236.735 136.955C234.366 136.955 232.446 138.875 232.446 141.244C232.446 143.613 234.366 145.533 236.735 145.533Z" stroke="#3F3D56" stroke-width="1.67621" stroke-miterlimit="10"/>
<path d="M49.6171 31.5879C51.9859 31.5879 53.9062 29.6676 53.9062 27.2989C53.9062 24.9301 51.9859 23.0098 49.6171 23.0098C47.2483 23.0098 45.328 24.9301 45.328 27.2989C45.328 29.6676 47.2483 31.5879 49.6171 31.5879Z" stroke="#3F3D56" stroke-width="1.67621" stroke-miterlimit="10"/>
<path d="M139.343 56.4038C148.063 56.4038 155.131 49.3352 155.131 40.6157C155.131 31.8962 148.063 24.8276 139.343 24.8276C130.624 24.8276 123.555 31.8962 123.555 40.6157C123.555 49.3352 130.624 56.4038 139.343 56.4038Z" fill="#F2F2F2"/>
<path d="M201.425 78.9815C207.332 78.9815 212.121 74.1924 212.121 68.2847C212.121 62.377 207.332 57.5879 201.425 57.5879C195.517 57.5879 190.728 62.377 190.728 68.2847C190.728 74.1924 195.517 78.9815 201.425 78.9815Z" fill="black"/>
<path d="M212.965 202.329L214.999 211.049H210.058L208.023 201.166L212.965 202.329Z" fill="#9F616A"/>
<path d="M189.129 202.329V210.468L184.188 211.049V202.329H189.129Z" fill="#9F616A"/>
<path d="M214.418 109.894C214.418 109.894 213.837 122.393 213.255 123.265C212.674 124.137 207.442 136.636 207.442 136.636L204.826 128.497C204.826 128.497 208.895 121.812 208.314 118.033C207.732 114.254 208.099 109.604 208.099 109.604L214.418 109.894Z" fill="#9F616A"/>
<path d="M197.849 79.6636C202.344 79.6636 205.988 76.0196 205.988 71.5247C205.988 67.0297 202.344 63.3857 197.849 63.3857C193.354 63.3857 189.711 67.0297 189.711 71.5247C189.711 76.0196 193.354 79.6636 197.849 79.6636Z" fill="#9F616A"/>
<path d="M204.535 72.397C204.535 72.397 204.244 84.024 206.279 85.768C208.314 87.5121 194.652 86.0587 194.652 86.0587C194.652 86.0587 197.559 77.9198 195.233 76.1758C192.908 74.4317 204.535 72.397 204.535 72.397Z" fill="#9F616A"/>
<path d="M193.78 85.4772C193.78 85.4772 195.524 82.2798 197.849 82.5704C200.175 82.8611 207.732 83.4425 208.023 84.0238C208.314 84.6052 209.186 86.6399 209.767 87.2212C210.348 87.8026 214.709 88.6746 214.999 92.1627C215.29 95.6508 204.535 116.87 204.535 116.87C204.535 116.87 205.988 121.812 205.698 122.974C205.407 124.137 207.151 127.625 206.86 129.079C206.57 130.532 211.221 139.252 208.895 150.589V168.901C208.895 168.901 216.743 200.585 214.418 202.91C212.093 205.236 204.244 203.782 202.791 202.91C201.338 202.038 195.233 158.146 195.233 158.146L192.327 143.322L192.036 175.877C192.036 175.877 192.617 203.201 190.583 204.073C188.548 204.945 180.7 205.236 180.118 203.491C179.665 202.131 177.443 165.939 176.487 150.075C176.156 144.599 176.587 139.104 177.767 133.746C178.977 128.259 180.733 121.812 182.734 119.196C186.513 114.254 188.839 98.5576 188.839 98.5576L183.897 89.5467C183.897 89.5467 186.804 86.6399 188.548 86.6399C190.292 86.6399 193.78 85.4772 193.78 85.4772Z" fill="black"/>
<path d="M213.255 90.1279L214.788 91.1713C214.788 91.1713 215.871 109.894 214.999 111.057C214.127 112.219 208.064 111.652 207.608 110.628C207.151 109.603 213.255 90.1279 213.255 90.1279Z" fill="black"/>
<path d="M187.334 107.151C188.185 113.053 188.93 118.308 184.58 123.061C180.207 127.872 175.276 132.144 169.891 135.785C169.357 137.198 161.524 147.578 161.125 143.438C160.727 139.297 163.433 136.051 167.279 132.55C171.125 129.049 176.506 121.452 179.542 117.284C182.578 113.115 181.328 110.516 181.222 107.034C181.117 103.552 186.14 107.193 187.334 107.151Z" fill="#9F616A"/>
<path d="M184.188 205.758C184.188 205.758 183.897 209.014 183.025 209.886C182.153 210.758 179.828 211.921 180.118 215.118C180.409 218.316 182.298 218.461 182.298 218.461L182.153 217.734L183.025 218.025L183.17 218.461H191.309C191.309 218.461 191.455 215.409 191.164 213.956C190.873 212.502 190.873 205.526 190.001 205.817C189.129 206.107 186.804 206.398 186.222 207.561C185.641 208.723 183.897 208.316 184.188 205.758Z" fill="black"/>
<path d="M213.837 205.758C213.837 205.758 214.127 209.014 214.999 209.886C215.871 210.758 218.197 211.921 217.906 215.118C217.615 218.316 215.726 218.461 215.726 218.461L215.871 217.734L214.999 218.025L214.854 218.461H206.715C206.715 218.461 206.57 215.409 206.86 213.956C207.151 212.502 207.151 205.526 208.023 205.817C208.895 206.107 211.221 206.398 211.802 207.561C212.383 208.723 214.127 208.316 213.837 205.758Z" fill="black"/>
<path d="M187.966 88.6748L183.897 89.5468C183.897 89.5468 183.897 95.9417 182.734 98.5578C181.572 101.174 179.537 107.278 180.409 107.569C181.281 107.859 189.42 111.929 190.001 109.603C190.583 107.278 192.036 88.6748 187.966 88.6748Z" fill="black"/>
<path d="M213.013 64.8971C218.921 64.8971 223.71 60.1079 223.71 54.2002C223.71 48.2925 218.921 43.5034 213.013 43.5034C207.105 43.5034 202.316 48.2925 202.316 54.2002C202.316 60.1079 207.105 64.8971 213.013 64.8971Z" fill="black"/>
<path d="M222.239 63.0581C220.855 64.0588 219.251 64.7133 217.562 64.967C215.872 65.2206 214.147 65.066 212.529 64.5161C210.912 63.9662 209.45 63.0369 208.265 61.8061C207.081 60.5752 206.208 59.0786 205.721 57.4414C205.905 58.9086 206.392 60.3216 207.15 61.5912C207.908 62.8608 208.921 63.9595 210.126 64.8178C211.33 65.6761 212.699 66.2754 214.146 66.5779C215.594 66.8804 217.088 66.8795 218.535 66.5753C219.982 66.2711 221.351 65.6701 222.554 64.8104C223.757 63.9507 224.769 62.8508 225.526 61.5803C226.282 60.3098 226.767 58.8962 226.95 57.4288C227.133 55.9613 227.009 54.472 226.587 53.0547C226.827 54.9588 226.55 56.8923 225.785 58.6524C225.02 60.4125 223.795 61.9343 222.239 63.0581Z" fill="black"/>
<path d="M204.277 77.9113C208.609 77.9113 212.121 74.3993 212.121 70.067C212.121 65.7347 208.609 62.2227 204.277 62.2227C199.945 62.2227 196.433 65.7347 196.433 70.067C196.433 74.3993 199.945 77.9113 204.277 77.9113Z" fill="black"/>
<path d="M197.681 72.5636C201.521 72.5636 204.634 70.1291 204.634 67.126C204.634 64.1229 201.521 61.6885 197.681 61.6885C193.841 61.6885 190.728 64.1229 190.728 67.126C190.728 70.1291 193.841 72.5636 197.681 72.5636Z" fill="black"/>
<path d="M195.826 75.0322C196.555 75.0322 197.146 73.9869 197.146 72.6975C197.146 71.4081 196.555 70.3628 195.826 70.3628C195.097 70.3628 194.507 71.4081 194.507 72.6975C194.507 73.9869 195.097 75.0322 195.826 75.0322Z" fill="#A0616A"/>
</svg>
