<svg width="165" height="165" viewBox="0 0 165 165" fill="none" xmlns="http://www.w3.org/2000/svg">
<path d="M82.5 0C104.38 0 125.365 8.69194 140.836 24.1637C156.308 39.6354 165 60.6196 165 82.5C165 104.38 156.308 125.365 140.836 140.836C125.365 156.308 104.38 165 82.5 165C60.6196 165 39.6354 156.308 24.1637 140.836C8.69194 125.365 0 104.38 0 82.5C0 60.6196 8.69194 39.6354 24.1637 24.1637C39.6354 8.69194 60.6196 0 82.5 0ZM72.2229 98.7761L53.8961 80.4375C53.2391 79.7805 52.4591 79.2593 51.6007 78.9037C50.7422 78.5482 49.8222 78.3652 48.893 78.3652C47.9639 78.3652 47.0438 78.5482 46.1854 78.9037C45.327 79.2593 44.547 79.7805 43.89 80.4375C42.5631 81.7644 41.8177 83.564 41.8177 85.4405C41.8177 87.317 42.5631 89.1167 43.89 90.4436L67.2257 113.779C67.8809 114.44 68.6603 114.964 69.5189 115.321C70.3776 115.679 71.2986 115.863 72.2288 115.863C73.1589 115.863 74.0799 115.679 74.9386 115.321C75.7972 114.964 76.5766 114.44 77.2318 113.779L125.553 65.4461C126.219 64.7918 126.749 64.0122 127.112 63.1522C127.475 62.2922 127.664 61.3688 127.668 60.4353C127.672 59.5019 127.492 58.5768 127.137 57.7135C126.782 56.8501 126.26 56.0656 125.6 55.4051C124.94 54.7447 124.156 54.2214 123.293 53.8654C122.43 53.5094 121.506 53.3278 120.572 53.3311C119.639 53.3343 118.715 53.5223 117.855 53.8843C116.994 54.2462 116.214 54.775 115.559 55.44L72.2229 98.7761Z" fill="#FF0000"/>
</svg>
