<svg width="56" height="56" viewBox="0 0 56 56" fill="none" xmlns="http://www.w3.org/2000/svg">
<path d="M42 25.6666C38.7722 25.6666 36.0204 24.5287 33.7447 22.2529C31.4689 19.9771 30.3318 17.2261 30.3333 13.9999C30.3333 10.811 31.4611 8.06936 33.7167 5.77492C35.9722 3.48047 38.7333 2.33325 42 2.33325C45.2278 2.33325 47.9796 3.47036 50.2553 5.74459C52.5311 8.01881 53.6682 10.7706 53.6667 13.9999C53.6667 17.2277 52.5288 19.9795 50.253 22.2553C47.9772 24.531 45.2262 25.6681 42 25.6666ZM40.8333 16.3333H43.1667V6.99992H40.8333V16.3333ZM42 20.9999C42.3111 20.9999 42.5833 20.8833 42.8167 20.6499C43.05 20.4166 43.1667 20.1444 43.1667 19.8333C43.1667 19.5221 43.05 19.2499 42.8167 19.0166C42.5833 18.7833 42.3111 18.6666 42 18.6666C41.6889 18.6666 41.4167 18.7833 41.1833 19.0166C40.95 19.2499 40.8333 19.5221 40.8333 19.8333C40.8333 20.1444 40.95 20.4166 41.1833 20.6499C41.4167 20.8833 41.6889 20.9999 42 20.9999ZM17.5 34.9999C18.4722 34.9999 19.299 34.6593 19.9803 33.9779C20.6617 33.2966 21.0016 32.4706 21 31.4999C21 30.5277 20.6593 29.7009 19.978 29.0196C19.2967 28.3383 18.4707 27.9984 17.5 27.9999C16.5278 27.9999 15.701 28.3406 15.0197 29.0219C14.3383 29.7033 13.9984 30.5293 14 31.4999C14 32.4721 14.3407 33.2989 15.022 33.9803C15.7033 34.6616 16.5293 35.0015 17.5 34.9999ZM7 46.6666V25.6666L12.7167 9.33325H26.3667C26.1333 10.0721 25.9583 10.8305 25.8417 11.6083C25.725 12.386 25.6667 13.1833 25.6667 13.9999H15.9833L13.5333 20.9999H27.2417C28.1361 22.8666 29.3417 24.4898 30.8583 25.8696C32.375 27.2494 34.0667 28.3484 35.9333 29.1666C35.6222 29.4777 35.3889 29.8378 35.2333 30.2469C35.0778 30.656 35 31.0737 35 31.4999C35 32.4721 35.3407 33.2989 36.022 33.9803C36.7033 34.6616 37.5293 35.0015 38.5 34.9999C39.4722 34.9999 40.299 34.6593 40.9803 33.9779C41.6617 33.2966 42.0016 32.4706 42 31.4999C42 31.3055 41.9899 31.111 41.9697 30.9166C41.9494 30.7221 41.9012 30.5277 41.825 30.3333C43.0694 30.3721 44.2944 30.2555 45.5 29.9833C46.7056 29.711 47.8722 29.3027 49 28.7583V46.6666H42V41.9999H14V46.6666H7Z" fill="white"/>
</svg>
