<svg width="42" height="45" viewBox="0 0 42 45" fill="none" xmlns="http://www.w3.org/2000/svg">
<path d="M30.6943 2.89149C22.0198 -2.0018 11.3436 -0.444845 4.44845 6.22783V2.22423C4.44845 0.88969 3.55876 0 2.22423 0C0.88969 0 0 0.88969 0 2.22423V12.2332C0 13.5678 0.88969 14.4575 2.22423 14.4575H12.2332C13.5678 14.4575 14.4575 13.5678 14.4575 12.2332C14.4575 10.8987 13.5678 10.009 12.2332 10.009H6.8951C10.009 6.45025 14.6799 4.44845 19.7956 4.44845C29.5822 4.44845 37.5894 12.4557 37.5894 22.2423C37.5894 32.0289 29.5822 40.0361 19.7956 40.0361C18.4611 40.0361 17.5714 40.9258 17.5714 42.2603C17.5714 43.5948 18.4611 44.4845 19.7956 44.4845C27.8028 44.4845 35.1428 40.2585 39.1464 33.3634C45.1518 22.6871 41.3706 9.11933 30.6943 2.89149ZM19.5732 13.3454C18.2386 13.3454 17.349 14.235 17.349 15.5696V22.2423C17.349 23.5768 18.2386 24.4665 19.5732 24.4665H24.0216C25.3562 24.4665 26.2459 23.5768 26.2459 22.2423C26.2459 20.9077 25.3562 20.018 24.0216 20.018H21.7974V15.5696C21.7974 14.235 20.9077 13.3454 19.5732 13.3454Z" fill="white"/>
</svg>
