<svg width="56" height="56" viewBox="0 0 56 56" fill="none" xmlns="http://www.w3.org/2000/svg">
<g clip-path="url(#clip0_1_1426)">
<path d="M21 35V32.6667H23.3333V35H21Z" fill="white"/>
<path fill-rule="evenodd" clip-rule="evenodd" d="M42 4.66669C43.2377 4.66669 44.4246 5.15835 45.2998 6.03352C46.175 6.90869 46.6666 8.09568 46.6666 9.33335V46.6667C46.6666 47.9044 46.175 49.0914 45.2998 49.9665C44.4246 50.8417 43.2377 51.3334 42 51.3334H14C12.7623 51.3334 11.5753 50.8417 10.7001 49.9665C9.82498 49.0914 9.33331 47.9044 9.33331 46.6667V9.33335C9.33331 8.09568 9.82498 6.90869 10.7001 6.03352C11.5753 5.15835 12.7623 4.66669 14 4.66669H42ZM24.5 28H19.8333C18.9051 28 18.0148 28.3688 17.3584 29.0251C16.7021 29.6815 16.3333 30.5718 16.3333 31.5V36.1667C16.3333 37.0949 16.7021 37.9852 17.3584 38.6416C18.0148 39.2979 18.9051 39.6667 19.8333 39.6667H24.5C25.4282 39.6667 26.3185 39.2979 26.9749 38.6416C27.6312 37.9852 28 37.0949 28 36.1667V31.5C28 30.5718 27.6312 29.6815 26.9749 29.0251C26.3185 28.3688 25.4282 28 24.5 28ZM37.3333 31.5H32.6666C32.0719 31.5007 31.4999 31.7284 31.0675 32.1367C30.635 32.5449 30.3748 33.1029 30.3399 33.6966C30.3051 34.2903 30.4982 34.8749 30.8799 35.331C31.2616 35.787 31.8031 36.0801 32.3936 36.1504L32.6666 36.1667H37.3333C37.928 36.166 38.5001 35.9383 38.9325 35.53C39.365 35.1218 39.6252 34.5638 39.66 33.9701C39.6949 33.3764 39.5017 32.7918 39.12 32.3357C38.7383 31.8797 38.1969 31.5866 37.6063 31.5164L37.3333 31.5ZM23.646 15.7804L20.3466 19.0797L19.5206 18.2537C19.3054 18.0308 19.0479 17.8531 18.7633 17.7308C18.4786 17.6085 18.1724 17.5441 17.8626 17.5414C17.5528 17.5387 17.2455 17.5978 16.9588 17.7151C16.672 17.8324 16.4115 18.0057 16.1924 18.2248C15.9733 18.4438 15.8001 18.7044 15.6827 18.9911C15.5654 19.2779 15.5064 19.5851 15.5091 19.895C15.5118 20.2048 15.5761 20.511 15.6984 20.7956C15.8207 21.0803 15.9985 21.3378 16.2213 21.553L18.284 23.6157C18.5548 23.8866 18.8764 24.1015 19.2303 24.2481C19.5842 24.3948 19.9636 24.4702 20.3466 24.4702C20.7297 24.4702 21.1091 24.3948 21.463 24.2481C21.8169 24.1015 22.1385 23.8866 22.4093 23.6157L26.9453 19.0797C27.3703 18.6396 27.6055 18.0502 27.6002 17.4384C27.5949 16.8266 27.3495 16.2414 26.9169 15.8088C26.4843 15.3762 25.899 15.1308 25.2872 15.1254C24.6755 15.1201 24.0861 15.3553 23.646 15.7804ZM37.3333 18.6667H32.6666C32.0719 18.6673 31.4999 18.8951 31.0675 19.3033C30.635 19.7116 30.3748 20.2696 30.3399 20.8633C30.3051 21.457 30.4982 22.0416 30.8799 22.4976C31.2616 22.9537 31.8031 23.2468 32.3936 23.317L32.6666 23.3334H37.3333C37.928 23.3327 38.5001 23.105 38.9325 22.6967C39.365 22.2884 39.6252 21.7305 39.66 21.1368C39.6949 20.5431 39.5017 19.9585 39.12 19.5024C38.7383 19.0464 38.1969 18.7533 37.6063 18.683L37.3333 18.6667Z" fill="white"/>
</g>
<defs>
<clipPath id="clip0_1_1426">
<rect width="56" height="56" fill="white"/>
</clipPath>
</defs>
</svg>
