<svg width="56" height="56" viewBox="0 0 56 56" fill="none" xmlns="http://www.w3.org/2000/svg">
<path d="M31.2406 4.64575C26.9091 4.64575 23.2562 7.76436 23.2562 11.7551C23.2562 13.7709 24.1889 15.5636 25.6696 16.8447L26.5964 15.0214C25.7349 14.1243 25.2248 12.9797 25.2248 11.7551C25.2248 8.98028 27.84 6.6145 31.2404 6.6145C34.6409 6.6145 37.2561 8.98028 37.2561 11.7551C37.2561 13.6586 36.0253 15.3695 34.1546 16.2563L33.3363 18.614C33.543 18.564 33.7478 18.5064 33.9502 18.4412L34.9519 20.1926C33.8225 20.987 32.7294 21.9717 31.5575 23.1974L40.4552 42.8184C45.9529 43.0719 51.2575 40.1567 53.9908 35.3798L42.1969 17.3508C39.9912 17.7912 38.2167 18.341 36.6324 19.1662L35.7476 17.6192C37.8319 16.3488 39.2249 14.2187 39.2249 11.7552C39.2249 7.76447 35.572 4.64586 31.2406 4.64586V4.64575ZM17.824 5.29621C17.533 5.29949 17.2274 5.34761 16.9323 5.44364C16.2575 5.66283 15.6866 6.11455 15.4383 6.60192L15.4068 6.66427L8.3079 16.7593C8.07438 17.2462 8.04737 17.9566 8.25791 18.6153C8.47338 19.2888 8.91909 19.8518 9.37376 20.0834L25.089 28.0853C25.5344 28.3122 26.2473 28.3483 26.9099 28.132C27.5601 27.9198 28.1125 27.4883 28.3758 26.9844L31.1496 18.8622C31.155 18.8622 31.1605 18.8625 31.166 18.8626L31.858 16.8687C31.8486 16.8696 31.8388 16.8698 31.8295 16.8707L32.366 15.2995L32.3977 15.2374C32.646 14.75 32.6756 14.0212 32.4579 13.3472C32.2402 12.6732 31.7907 12.1052 31.3167 11.8638L27.8081 10.0774C27.0925 10.9719 26.873 12.2505 27.7703 13.4538L28.0011 13.8401L29.1263 14.4308L28.2233 16.2042L28.2074 16.1965L27.3195 17.9432C27.3244 17.9458 27.3293 17.9479 27.3342 17.9503L26.6448 19.304L15.5334 13.6462L17.5685 9.64988L18.0149 8.77269L21.3896 10.4912C21.5598 9.41822 21.9279 8.38594 22.52 7.3845L18.8238 5.50271C18.5488 5.36271 18.198 5.29216 17.824 5.29621ZM41.6598 19.6659L44.2938 24.4587L36.4337 28.7779L34.2737 24.8481L33.7997 23.9854L41.6598 19.666V19.6659ZM40.8826 22.3395L36.4735 24.7625L37.2109 26.1046L41.62 23.6815L40.8826 22.3395ZM12.5234 23.8965L10.2408 28.3801L17.8432 32.2511L20.1262 27.7676L12.5234 23.8965ZM45.0312 25.8007L47.665 30.5932L39.8049 34.9124L37.6453 30.9826L37.1713 30.12L45.0314 25.8005L45.0312 25.8007ZM44.254 28.4741L39.8447 30.8972L40.5823 32.2392L44.9915 29.8161L44.2541 28.4741H44.254ZM10.9069 30.9285H10.9066L2.00943 48.4018L2.67913 50.4613L11.1299 33.8651L12.884 34.7584L4.43351 51.3545L6.88077 50.5588L8.29915 50.0975L7.53505 47.7398L9.88618 46.9775L9.12099 44.625L11.4747 43.8596L10.8874 42.0545L15.3904 33.2113L10.9069 30.9285Z" fill="white"/>
</svg>
