<svg width="360" height="148" viewBox="0 0 360 148" fill="none" xmlns="http://www.w3.org/2000/svg">
<mask id="mask0_43_4096" style="mask-type:alpha" maskUnits="userSpaceOnUse" x="0" y="0" width="360" height="148">
<rect x="0.219971" y="0.272949" width="359.56" height="147.044" rx="21.4663" fill="#F7F7F7"/>
</mask>
<g mask="url(#mask0_43_4096)">
<path d="M0.219971 141.414C11.8475 142.487 38.8593 138.623 51.739 114.581C67.8387 84.5281 74.2786 72.185 91.4516 72.185C108.625 72.185 125.261 108.141 137.604 108.141C149.947 108.141 167.657 53.402 184.293 53.402C200.93 53.402 203.613 72.185 216.493 72.185C229.372 72.185 233.129 29.7891 258.889 29.7891C284.648 29.7891 298.601 92.5779 321.677 92.5779C344.754 92.5779 346.9 53.402 359.78 53.402" stroke="#FF0000" stroke-width="1.07331"/>
<path opacity="0.1" d="M8.43892 147.317C5.16904 147.544 2.34723 147.513 0.219971 147.317H8.43892C23.0421 146.301 46.5822 140.128 57.1056 120.484C73.2053 90.4314 79.6452 78.0883 96.8182 78.0883C113.991 78.0883 130.628 114.044 142.971 114.044C155.314 114.044 173.023 59.3053 189.66 59.3053C206.296 59.3053 208.98 78.0883 221.859 78.0883C234.739 78.0883 238.496 35.6924 264.255 35.6924C290.015 35.6924 303.968 98.4812 327.044 98.4812C350.12 98.4812 346.9 59.3053 359.78 59.3053V147.317H8.43892Z" fill="#FF0000" fill-opacity="0.23"/>
</g>
</svg>
