<svg width="34" height="50" viewBox="0 0 34 50" fill="none" xmlns="http://www.w3.org/2000/svg">
<path d="M7.66667 14.3333C5.72222 14.3333 4.06945 13.6527 2.70833 12.2916C1.34722 10.9305 0.666668 9.2777 0.666668 7.33325C0.666668 5.38881 1.34722 3.73603 2.70833 2.37492C4.06945 1.01381 5.72222 0.333252 7.66667 0.333252C9.14445 0.333252 10.4861 0.771141 11.6917 1.64692C12.8972 2.5227 13.7722 3.64036 14.3167 4.99992H33.3333V9.66658H31V14.3333H26.3333V9.66658H14.3167C13.7722 11.0277 12.8972 12.1461 11.6917 13.0219C10.4861 13.8977 9.14445 14.3348 7.66667 14.3333ZM7.66667 9.66658C8.32778 9.66658 8.88234 9.44258 9.33034 8.99459C9.77834 8.54659 10.0016 7.99281 10 7.33325C10 6.67214 9.776 6.11759 9.328 5.66958C8.88 5.22158 8.32622 4.99836 7.66667 4.99992C7.00556 4.99992 6.451 5.22392 6.003 5.67192C5.555 6.11992 5.33178 6.6737 5.33333 7.33325C5.33333 7.99436 5.55734 8.54892 6.00534 8.99692C6.45334 9.44492 7.00711 9.66814 7.66667 9.66658ZM10 38.8333C10.6611 38.8333 11.2157 38.6092 11.6637 38.1613C12.1117 37.7132 12.3349 37.1595 12.3333 36.4999C12.3333 35.8388 12.1093 35.2842 11.6613 34.8363C11.2133 34.3882 10.6596 34.165 10 34.1666C9.33889 34.1666 8.78433 34.3906 8.33633 34.8386C7.88833 35.2866 7.66511 35.8404 7.66667 36.4999C7.66667 37.161 7.89067 37.7156 8.33867 38.1636C8.78667 38.6116 9.34045 38.8348 10 38.8333ZM24 38.8333C24.6611 38.8333 25.2157 38.6092 25.6637 38.1613C26.1117 37.7132 26.3349 37.1595 26.3333 36.4999C26.3333 35.8388 26.1093 35.2842 25.6613 34.8363C25.2133 34.3882 24.6596 34.165 24 34.1666C23.3389 34.1666 22.7843 34.3906 22.3363 34.8386C21.8883 35.2866 21.6651 35.8404 21.6667 36.4999C21.6667 37.161 21.8907 37.7156 22.3387 38.1636C22.7867 38.6116 23.3404 38.8348 24 38.8333ZM0.666668 49.3333V32.0666L5.15834 18.9999H28.8417L33.3333 32.0666V49.3333H28.6667V44.6666H5.33333V49.3333H0.666668ZM6.85 28.3333H27.15L25.5167 23.6666H8.48334L6.85 28.3333Z" fill="white"/>
</svg>
