<svg width="56" height="56" viewBox="0 0 56 56" fill="none" xmlns="http://www.w3.org/2000/svg">
<path d="M11.2 18.6666C12.5107 18.6666 13.7982 18.3216 14.9332 17.6663C16.0683 17.0109 17.0108 16.0684 17.6662 14.9333H44.8C45.7902 14.9333 46.7397 14.54 47.4399 13.8398C48.14 13.1397 48.5334 12.1901 48.5334 11.2C48.5334 10.2098 48.14 9.26025 47.4399 8.56012C46.7397 7.85998 45.7902 7.46665 44.8 7.46665H17.6662C17.0108 6.33166 16.0682 5.38917 14.9332 4.73389C13.7982 4.07862 12.5106 3.73364 11.2 3.73364C9.88941 3.73364 8.60189 4.07862 7.46685 4.73389C6.33181 5.38917 5.38925 6.33166 4.73389 7.46665H11.2V14.9333H4.73389C5.38921 16.0684 6.33175 17.0109 7.46679 17.6663C8.60184 18.3216 9.88938 18.6666 11.2 18.6666ZM8.01175 34.9216C7.6628 35.2714 7.46679 35.7453 7.46669 36.2394V50.4C7.46669 50.8951 7.66335 51.3698 8.01342 51.7199C8.36349 52.07 8.83828 52.2666 9.33335 52.2666H14.9334C15.4284 52.2666 15.9032 52.07 16.2533 51.7199C16.6034 51.3698 16.8 50.8951 16.8 50.4V48.5333H39.2V50.4C39.2 50.8951 39.3967 51.3698 39.7468 51.7199C40.0968 52.07 40.5716 52.2666 41.0667 52.2666H46.6667C47.1618 52.2666 47.6366 52.07 47.9866 51.7199C48.3367 51.3698 48.5334 50.8951 48.5334 50.4V36.2394C48.5332 35.7453 48.3372 35.2714 47.9883 34.9216L44.8 31.7333L39.7451 23.3072C39.5789 23.0299 39.3437 22.8005 39.0623 22.6415C38.7809 22.4825 38.463 22.3993 38.1398 22.4H17.8603C17.5377 22.3999 17.2206 22.4834 16.9399 22.6424C16.6592 22.8014 16.4245 23.0305 16.2587 23.3072L11.2 31.7333L8.01175 34.9216ZM41.567 33.6H14.4331L18.9131 26.1333H37.087L41.567 33.6ZM20.5334 40.4245V41.8133C20.5334 42.1104 20.4154 42.3952 20.2053 42.6053C19.9953 42.8153 19.7104 42.9333 19.4134 42.9333H12.32C12.023 42.9333 11.7381 42.8153 11.5281 42.6053C11.318 42.3952 11.2 42.1104 11.2 41.8133V38.6997C11.2001 38.534 11.2369 38.3704 11.3079 38.2206C11.3789 38.0709 11.4822 37.9387 11.6104 37.8337C11.7386 37.7287 11.8885 37.6535 12.0493 37.6134C12.2101 37.5734 12.3778 37.5695 12.5403 37.6021L19.335 38.961C19.6729 39.0291 19.977 39.2121 20.1954 39.4789C20.4138 39.7456 20.5332 40.0797 20.5334 40.4245ZM44.8 39.1552V41.8133C44.8 42.1104 44.682 42.3952 44.472 42.6053C44.2619 42.8153 43.9771 42.9333 43.68 42.9333H36.5867C36.2896 42.9333 36.0048 42.8153 35.7947 42.6053C35.5847 42.3952 35.4667 42.1104 35.4667 41.8133V40.1184C35.4668 39.8597 35.5565 39.609 35.7205 39.4089C35.8845 39.2088 36.1128 39.0717 36.3664 39.0208L43.0118 37.6917C43.2285 37.6481 43.4522 37.6531 43.6668 37.7064C43.8813 37.7597 44.0814 37.8599 44.2525 38C44.4235 38.14 44.5614 38.3162 44.6561 38.516C44.7508 38.7158 44.8 38.9341 44.8 39.1552Z" fill="white"/>
</svg>
