<svg width="26" height="26" viewBox="0 0 26 26" fill="none" xmlns="http://www.w3.org/2000/svg">
<path d="M20.7074 8.5865H17.7097C17.4133 8.5865 17.1731 8.34623 17.1731 8.04984C17.1731 7.75345 17.4133 7.51318 17.7097 7.51318H22.003C22.2994 7.51318 22.5396 7.75345 22.5396 8.04984V12.3431C22.5396 12.6395 22.2994 12.8798 22.003 12.8798C21.7066 12.8798 21.4663 12.6395 21.4663 12.3431V9.34544L15.9426 14.8692C15.733 15.0788 15.3932 15.0788 15.1836 14.8692L12.3431 12.0287L8.42936 15.9425C8.21978 16.1521 7.87999 16.1521 7.67041 15.9425C7.46083 15.7329 7.46083 15.3931 7.67041 15.1836L11.9637 10.8903C12.1732 10.6807 12.513 10.6807 12.7226 10.8903L15.5631 13.7308L20.7074 8.5865ZM22.003 19.3196C22.2994 19.3196 22.5396 19.5599 22.5396 19.8563C22.5396 20.1527 22.2994 20.393 22.003 20.393H5.90326C4.42132 20.393 3.21997 19.1916 3.21997 17.7097V8.04984C3.21997 7.75345 3.46024 7.51318 3.75663 7.51318C4.05302 7.51318 4.29328 7.75345 4.29328 8.04984V17.7097C4.29328 18.5988 5.01409 19.3196 5.90326 19.3196H22.003Z" fill="#666666"/>
</svg>
