<svg width="213" height="177" viewBox="0 0 213 177" fill="none" xmlns="http://www.w3.org/2000/svg">
<path d="M108 102C120.465 102 132.42 97.0482 141.234 88.234C150.048 79.4198 155 67.4652 155 55C155 42.5348 150.048 30.5802 141.234 21.766C132.42 12.9518 120.465 8 108 8C95.5348 8 83.5802 12.9518 74.766 21.766C65.9518 30.5802 61 42.5348 61 55C61 67.4652 65.9518 79.4198 74.766 88.234C83.5802 97.0482 95.5348 102 108 102ZM102.125 46.1875C102.125 51.052 99.493 55 96.25 55C93.007 55 90.375 51.052 90.375 46.1875C90.375 41.323 93.007 37.375 96.25 37.375C99.493 37.375 102.125 41.323 102.125 46.1875ZM86.1744 64.2061C86.8491 63.8166 87.6508 63.711 88.4033 63.9127C89.1559 64.1143 89.7975 64.6066 90.187 65.2812C91.9913 68.4087 94.5877 71.0057 97.7148 72.8106C100.842 74.6155 104.389 75.5646 108 75.5625C111.611 75.5646 115.158 74.6155 118.285 72.8106C121.412 71.0057 124.009 68.4087 125.813 65.2812C126.004 64.9445 126.261 64.6489 126.567 64.4115C126.873 64.1742 127.223 63.9997 127.597 63.8982C127.971 63.7967 128.361 63.7702 128.745 63.8201C129.129 63.8701 129.5 63.9955 129.835 64.1892C130.171 64.3829 130.465 64.641 130.7 64.9488C130.935 65.2565 131.108 65.6078 131.207 65.9823C131.306 66.3568 131.33 66.7472 131.277 67.1311C131.225 67.5149 131.097 67.8845 130.901 68.2188C128.581 72.2393 125.243 75.5779 121.223 77.8984C117.202 80.219 112.642 81.4396 108 81.4375C103.358 81.4396 98.7976 80.219 94.7774 77.8984C90.7572 75.5779 87.4192 72.2393 85.0993 68.2188C84.7097 67.5441 84.6042 66.7423 84.8058 65.9898C85.0074 65.2373 85.4997 64.5957 86.1744 64.2061ZM119.75 55C116.507 55 113.875 51.052 113.875 46.1875C113.875 41.323 116.507 37.375 119.75 37.375C122.993 37.375 125.625 41.323 125.625 46.1875C125.625 51.052 122.993 55 119.75 55Z" fill="#EE1703" fill-opacity="0.6"/>
<circle cx="133" cy="94" r="10" fill="#EE1703" fill-opacity="0.6"/>
<circle cx="75" cy="19" r="4" fill="#EE1703" fill-opacity="0.6"/>
<circle cx="141" cy="8" r="8" fill="#EE1703" fill-opacity="0.6"/>
<circle cx="151" cy="106" r="5" fill="#EE1703" fill-opacity="0.6"/>
<circle cx="133" cy="117" r="3" fill="#EE1703" fill-opacity="0.6"/>
<circle cx="143" cy="122" r="1" fill="#EE1703" fill-opacity="0.6"/>
<g filter="url(#filter0_f_527_1272)">
<ellipse cx="106.5" cy="134.5" rx="68.5" ry="4.5" fill="#5EA284"/>
</g>
<defs>
<filter id="filter0_f_527_1272" x="0" y="92" width="213" height="85" filterUnits="userSpaceOnUse" color-interpolation-filters="sRGB">
<feFlood flood-opacity="0" result="BackgroundImageFix"/>
<feBlend mode="normal" in="SourceGraphic" in2="BackgroundImageFix" result="shape"/>
<feGaussianBlur stdDeviation="19" result="effect1_foregroundBlur_527_1272"/>
</filter>
</defs>
</svg>
